<svg width="51" height="48" viewBox="0 0 51 48" fill="none" xmlns="http://www.w3.org/2000/svg">
<mask id="path-1-inside-1" fill="white">
<path fill-rule="evenodd" clip-rule="evenodd" d="M47.4156 20.3105C46.5299 17.5844 44.1658 15.2203 39.4376 10.4921L37.5079 8.56242C32.7797 3.83422 30.4156 1.47012 27.6895 0.584355C25.2915 -0.194786 22.7085 -0.194785 20.3105 0.584355C17.5844 1.47012 15.2203 3.83422 10.4921 8.56242L8.56242 10.4921C3.83422 15.2203 1.47012 17.5844 0.584356 20.3105C-0.194785 22.7085 -0.194785 25.2915 0.584355 27.6895C1.47012 30.4156 3.83422 32.7797 8.56242 37.5079L10.4921 39.4376C15.2203 44.1658 17.5844 46.5299 20.3105 47.4156C22.7085 48.1948 25.2915 48.1948 27.6895 47.4156C30.4156 46.5299 32.7797 44.1658 37.5079 39.4376L39.4376 37.5079C44.1658 32.7797 46.5299 30.4156 47.4156 27.6895C48.1948 25.2915 48.1948 22.7085 47.4156 20.3105Z"/>
</mask>
<path d="M39.4376 10.4921L36.6091 13.3205V13.3205L39.4376 10.4921ZM47.4156 20.3105L43.6114 21.5466L47.4156 20.3105ZM37.5079 8.56242L40.3363 5.734L40.3363 5.734L37.5079 8.56242ZM27.6895 0.584355L26.4534 4.38858L26.4534 4.38858L27.6895 0.584355ZM20.3105 0.584355L19.0745 -3.21987H19.0745L20.3105 0.584355ZM10.4921 8.56242L7.66369 5.73399V5.73399L10.4921 8.56242ZM8.56242 10.4921L11.3908 13.3205L8.56242 10.4921ZM0.584356 20.3105L4.38858 21.5466H4.38858L0.584356 20.3105ZM0.584355 27.6895L4.38858 26.4534L4.38858 26.4534L0.584355 27.6895ZM8.56242 37.5079L11.3908 34.6795L11.3908 34.6795L8.56242 37.5079ZM10.4921 39.4376L7.66369 42.266L7.66369 42.266L10.4921 39.4376ZM20.3105 47.4156L19.0745 51.2199H19.0745L20.3105 47.4156ZM27.6895 47.4156L26.4534 43.6114H26.4534L27.6895 47.4156ZM37.5079 39.4376L40.3363 42.266L40.3363 42.266L37.5079 39.4376ZM39.4376 37.5079L36.6091 34.6795L36.6091 34.6795L39.4376 37.5079ZM47.4156 27.6895L51.2199 28.9255L47.4156 27.6895ZM36.6091 13.3205C39.0199 15.7313 40.6557 17.3715 41.8182 18.7408C42.9503 20.0744 43.3967 20.8858 43.6114 21.5466L51.2199 19.0745C50.5488 17.0092 49.3703 15.2754 47.9169 13.5634C46.4938 11.8871 44.5834 9.98112 42.266 7.66369L36.6091 13.3205ZM34.6795 11.3908L36.6091 13.3205L42.266 7.6637L40.3363 5.734L34.6795 11.3908ZM26.4534 4.38858C27.1143 4.6033 27.9256 5.04968 29.2592 6.18183C30.6285 7.3443 32.2687 8.98008 34.6795 11.3909L40.3363 5.734C38.0189 3.41657 36.1129 1.50619 34.4366 0.0831181C32.7246 -1.37027 30.9908 -2.54883 28.9255 -3.21987L26.4534 4.38858ZM21.5466 4.38858C23.1412 3.87047 24.8588 3.87047 26.4534 4.38858L28.9255 -3.21987C25.7242 -4.26004 22.2758 -4.26004 19.0745 -3.21987L21.5466 4.38858ZM13.3205 11.3908C15.7313 8.98008 17.3715 7.3443 18.7408 6.18183C20.0744 5.04968 20.8858 4.6033 21.5466 4.38858L19.0745 -3.21987C17.0092 -2.54883 15.2754 -1.37028 13.5634 0.0831159C11.8871 1.50619 9.98112 3.41656 7.66369 5.73399L13.3205 11.3908ZM11.3908 13.3205L13.3205 11.3908L7.66369 5.73399L5.73399 7.66369L11.3908 13.3205ZM4.38858 21.5466C4.6033 20.8857 5.04968 20.0744 6.18183 18.7408C7.3443 17.3715 8.98008 15.7313 11.3908 13.3205L5.73399 7.66369C3.41657 9.98112 1.50619 11.8871 0.0831165 13.5634C-1.37028 15.2754 -2.54883 17.0092 -3.21987 19.0745L4.38858 21.5466ZM4.38858 26.4534C3.87047 24.8588 3.87047 23.1412 4.38858 21.5466L-3.21987 19.0745C-4.26004 22.2758 -4.26004 25.7242 -3.21987 28.9255L4.38858 26.4534ZM11.3908 34.6795C8.98007 32.2687 7.3443 30.6285 6.18183 29.2592C5.04968 27.9256 4.6033 27.1143 4.38858 26.4534L-3.21987 28.9255C-2.54883 30.9908 -1.37028 32.7246 0.0831154 34.4366C1.50619 36.1129 3.41656 38.0189 5.73399 40.3363L11.3908 34.6795ZM13.3205 36.6092L11.3908 34.6795L5.73399 40.3363L7.66369 42.266L13.3205 36.6092ZM21.5466 43.6114C20.8857 43.3967 20.0744 42.9503 18.7408 41.8182C17.3715 40.6557 15.7313 39.0199 13.3205 36.6091L7.66369 42.266C9.98112 44.5834 11.8871 46.4938 13.5634 47.9169C15.2754 49.3703 17.0092 50.5488 19.0745 51.2199L21.5466 43.6114ZM26.4534 43.6114C24.8588 44.1295 23.1412 44.1295 21.5466 43.6114L19.0745 51.2199C22.2758 52.26 25.7242 52.26 28.9255 51.2199L26.4534 43.6114ZM34.6795 36.6092C32.2687 39.0199 30.6285 40.6557 29.2592 41.8182C27.9256 42.9503 27.1142 43.3967 26.4534 43.6114L28.9255 51.2199C30.9908 50.5488 32.7246 49.3703 34.4366 47.9169C36.1129 46.4938 38.0189 44.5834 40.3363 42.266L34.6795 36.6092ZM36.6091 34.6795L34.6794 36.6092L40.3363 42.266L42.266 40.3363L36.6091 34.6795ZM43.6114 26.4534C43.3967 27.1143 42.9503 27.9256 41.8182 29.2592C40.6557 30.6285 39.0199 32.2687 36.6091 34.6795L42.266 40.3363C44.5834 38.0189 46.4938 36.1129 47.9169 34.4366C49.3703 32.7246 50.5488 30.9908 51.2199 28.9255L43.6114 26.4534ZM43.6114 21.5466C44.1295 23.1412 44.1295 24.8588 43.6114 26.4534L51.2199 28.9255C52.26 25.7242 52.26 22.2758 51.2199 19.0745L43.6114 21.5466Z" fill="#00B956" mask="url(#path-1-inside-1)"/>
<path d="M46.9629 10.8563C48.5273 9.29189 48.5273 6.75548 46.9629 5.19107C45.3985 3.62666 42.8621 3.62666 41.2977 5.19107L24.0711 22.4177L18.88 17.2266C17.3156 15.6622 14.7792 15.6622 13.2148 17.2266C11.6504 18.791 11.6504 21.3274 13.2148 22.8918L21.2385 30.9155C22.8029 32.4799 25.3393 32.4799 26.9037 30.9155L46.9629 10.8563Z" fill="#1939DE" stroke="white" stroke-width="4" stroke-linecap="round" stroke-linejoin="round"/>
</svg>
