<svg width="24" height="24" viewBox="0 0 24 24" fill="none" xmlns="http://www.w3.org/2000/svg">
<path d="M22 6.5C22 6.77614 21.7761 7 21.5 7H2.5C2.22386 7 2 6.77614 2 6.5V5.5C2 5.22386 2.22386 5 2.5 5H21.5C21.7761 5 22 5.22386 22 5.5V6.5Z" fill="#1939DE"/>
<path d="M22 12.5C22 12.7761 21.7761 13 21.5 13H2.5C2.22386 13 2 12.7761 2 12.5V11.5C2 11.2239 2.22386 11 2.5 11H21.5C21.7761 11 22 11.2239 22 11.5V12.5Z" fill="#1939DE"/>
<path d="M2 18.5C2 18.7761 2.22386 19 2.5 19H21.5C21.7761 19 22 18.7761 22 18.5V17.5C22 17.2239 21.7761 17 21.5 17H2.5C2.22386 17 2 17.2239 2 17.5V18.5Z" fill="#1939DE"/>
</svg>
